<svg width="128" height="128" viewBox="0 0 128 128" fill="none" xmlns="http://www.w3.org/2000/svg">
  <defs>
    <linearGradient id="letterGradient" x1="14" y1="42" x2="118" y2="88" gradientUnits="userSpaceOnUse">
      <stop offset="0" stop-color="#F7FFF9"/>
      <stop offset="0.28" stop-color="#D9F99D"/>
      <stop offset="0.62" stop-color="#6EE7B7"/>
      <stop offset="1" stop-color="#16A34A"/>
    </linearGradient>
    <filter id="letterGlow" x="-18" y="-18" width="164" height="164" filterUnits="userSpaceOnUse" color-interpolation-filters="sRGB">
      <feDropShadow dx="0" dy="0" stdDeviation="4" flood-color="#86EFAC" flood-opacity="0.95"/>
      <feDropShadow dx="0" dy="0" stdDeviation="10" flood-color="#22C55E" flood-opacity="0.5"/>
      <feDropShadow dx="0" dy="8" stdDeviation="8" flood-color="#02130D" flood-opacity="0.32"/>
    </filter>
  </defs>

  <g filter="url(#letterGlow)">
    <path
      d="M21.2 84.88Q19.42 84.88 18.65 84.09Q17.88 83.3 17.88 81.09Q17.88 79.6 18.17 77.48Q18.46 75.37 19.18 71.09Q19.28 70.51 19.95 66.4Q20.62 62.29 21.15 57.78Q21.63 53.93 21.63 52.01Q21.63 49.85 20.05 49.85Q18.84 49.85 17.04 51.12Q15.24 52.39 13.17 55.18Q12.5 56.09 11.68 56.09Q11.01 56.09 10.5 55.44Q10 54.8 10 53.98Q10 53.16 10.29 52.42Q10.58 51.67 11.35 50.61Q13.7 47.39 16.58 45.64Q19.47 43.89 22.64 43.89Q25.28 43.89 26.61 45.52Q27.93 47.15 27.93 50.28Q27.93 53.07 27.16 58.35Q29.56 51.24 33.26 47.56Q36.96 43.89 41.96 43.89Q45.9 43.89 47.9 46.12Q49.89 48.36 49.89 52.1Q49.89 54.22 49.27 57.25L46.34 70.99Q45.86 73.4 45.86 75.13Q45.86 77.15 46.79 78.15Q47.73 79.16 49.41 79.16Q51 79.16 52.51 78.11Q54.03 77.05 56.09 74.6Q56.67 73.93 57.39 73.93Q58.02 73.93 58.38 74.5Q58.74 75.08 58.74 76.09Q58.74 77.96 57.82 79.07Q55.32 82.1 52.87 83.49Q50.42 84.88 47.73 84.88Q43.64 84.88 41.34 82.46Q39.03 80.03 39.03 75.94Q39.03 74.36 39.3 72.48Q39.56 70.61 40.18 67.72L42.11 58.93Q42.2 58.5 42.44 57.39Q42.68 56.29 42.83 55.3Q42.97 54.32 42.97 53.35Q42.97 51.82 42.11 50.9Q41.24 49.99 39.66 49.99Q36.77 49.99 33.89 53.07Q31 56.14 28.55 62.99Q26.1 69.84 24.71 80.51Q24.37 82.96 23.72 83.92Q23.07 84.88 21.2 84.88ZM115.89 63.88Q116.99 63.88 117.5 64.36Q118 64.84 118 65.61Q118 66.86 117.26 67.82Q116.51 68.78 114.92 68.83Q111.13 68.88 108.1 68.25Q104.73 75.42 100 80.15Q95.27 84.88 90.65 84.88Q86.42 84.88 84.31 80.39Q82.19 75.9 81.9 68.35Q79.02 76.71 75.39 80.8Q71.76 84.88 67.68 84.88Q63.06 84.88 60.71 79.14Q58.35 73.4 58.35 63.69Q58.35 56.62 59.6 48.16Q59.94 45.76 60.83 44.82Q61.72 43.89 63.64 43.89Q65.08 43.89 65.87 44.51Q66.67 45.13 66.67 46.82Q66.67 47.15 66.57 48.11Q65.13 57.97 65.13 64.89Q65.13 71.33 66.23 74.84Q67.34 78.35 69.21 78.35Q70.9 78.35 73.28 74.81Q75.66 71.28 78.01 64.34Q80.37 57.39 82 47.78Q82.38 45.57 83.42 44.73Q84.45 43.89 86.23 43.89Q87.72 43.89 88.42 44.53Q89.11 45.18 89.11 46.48Q89.11 47.25 89.02 47.68Q87.67 55.52 87.67 63.35Q87.67 68.69 88.03 71.86Q88.39 75.03 89.43 76.69Q90.46 78.35 92.43 78.35Q94.74 78.35 97.57 74.86Q100.41 71.38 102.76 66.19Q99.83 64.36 98.34 61.45Q96.85 58.54 96.85 54.75Q96.85 50.95 98.03 48.33Q99.21 45.71 101.25 44.41Q103.29 43.12 105.79 43.12Q108.87 43.12 110.67 45.33Q112.47 47.54 112.47 51.38Q112.47 56.81 110.12 63.45Q112.57 63.88 115.89 63.88ZM101.71 54.41Q101.71 59.12 104.73 61.38Q106.61 56 106.61 52.49Q106.61 50.47 106.08 49.53Q105.55 48.6 104.64 48.6Q103.34 48.6 102.52 50.11Q101.71 51.62 101.71 54.41Z"
      fill="url(#letterGradient)"
      stroke="#052116"
      stroke-width="1.6"
      stroke-linejoin="round"
      paint-order="stroke fill"
    />
  </g>
</svg>
